<svg width="24" height="24" viewBox="0 0 24 24" fill="none" xmlns="http://www.w3.org/2000/svg">
<g clip-path="url(#clip0_1_35)">
<path fill-rule="evenodd" clip-rule="evenodd" d="M8.97822 5.23719C8.97822 5.03875 9.05705 4.84845 9.19736 4.70814C9.33768 4.56782 9.52798 4.489 9.72641 4.489H21.6975C21.8959 4.489 22.0862 4.56782 22.2265 4.70814C22.3668 4.84845 22.4457 5.03875 22.4457 5.23719V18.7046C22.4457 18.9031 22.3668 19.0934 22.2265 19.2337C22.0862 19.374 21.8959 19.4528 21.6975 19.4528H9.72641C9.52798 19.4528 9.33768 19.374 9.19736 19.2337C9.05705 19.0934 8.97822 18.9031 8.97822 18.7046V15.7119C8.97822 15.5134 8.8994 15.3231 8.75908 15.1828C8.61877 15.0425 8.42847 14.9637 8.23003 14.9637C8.0316 14.9637 7.8413 15.0425 7.70098 15.1828C7.56067 15.3231 7.48184 15.5134 7.48184 15.7119V18.7046C7.48184 19.2999 7.71832 19.8708 8.13926 20.2918C8.5602 20.7127 9.13112 20.9492 9.72641 20.9492H21.6975C22.2928 20.9492 22.8637 20.7127 23.2846 20.2918C23.7056 19.8708 23.942 19.2999 23.942 18.7046V5.23719C23.942 4.64189 23.7056 4.07097 23.2846 3.65003C22.8637 3.2291 22.2928 2.99261 21.6975 2.99261H9.72641C9.13112 2.99261 8.5602 3.2291 8.13926 3.65003C7.71832 4.07097 7.48184 4.64189 7.48184 5.23719V8.22995C7.48184 8.42838 7.56067 8.61869 7.70098 8.759C7.8413 8.89931 8.0316 8.97814 8.23003 8.97814C8.42847 8.97814 8.61877 8.89931 8.75908 8.759C8.8994 8.61869 8.97822 8.42838 8.97822 8.22995V5.23719Z" fill="#1C1C1C"/>
<path fill-rule="evenodd" clip-rule="evenodd" d="M17.7381 12.5008C17.8077 12.4313 17.863 12.3488 17.9007 12.2579C17.9385 12.167 17.9579 12.0695 17.9579 11.9711C17.9579 11.8727 17.9385 11.7753 17.9007 11.6844C17.863 11.5935 17.8077 11.5109 17.7381 11.4414L13.2489 6.95227C13.1794 6.8827 13.0968 6.82752 13.0059 6.78987C12.915 6.75223 12.8176 6.73285 12.7192 6.73285C12.6208 6.73285 12.5234 6.75223 12.4325 6.78987C12.3416 6.82752 12.259 6.8827 12.1895 6.95227C12.1199 7.02183 12.0647 7.10441 12.0271 7.1953C11.9894 7.28619 11.9701 7.38361 11.9701 7.48199C11.9701 7.58036 11.9894 7.67778 12.0271 7.76867C12.0647 7.85956 12.1199 7.94214 12.1895 8.0117L15.4022 11.2229H2.24453C2.0461 11.2229 1.85579 11.3018 1.71548 11.4421C1.57516 11.5824 1.49634 11.7727 1.49634 11.9711C1.49634 12.1696 1.57516 12.3599 1.71548 12.5002C1.85579 12.6405 2.0461 12.7193 2.24453 12.7193H15.4022L12.1895 15.9306C12.1199 16.0001 12.0647 16.0827 12.0271 16.1736C11.9894 16.2645 11.9701 16.3619 11.9701 16.4603C11.9701 16.5586 11.9894 16.6561 12.0271 16.747C12.0647 16.8378 12.1199 16.9204 12.1895 16.99C12.259 17.0596 12.3416 17.1147 12.4325 17.1524C12.5234 17.19 12.6208 17.2094 12.7192 17.2094C12.8176 17.2094 12.915 17.19 13.0059 17.1524C13.0968 17.1147 13.1794 17.0596 13.2489 16.99L17.7381 12.5008Z" fill="#1C1C1C"/>
</g>
<defs>
<clipPath id="clip0_1_35">
<rect width="23.9421" height="23.9421" fill="white"/>
</clipPath>
</defs>
</svg>
