<svg width="190" height="26" viewBox="0 0 190 26" fill="none" xmlns="http://www.w3.org/2000/svg">
<path d="M54.2074 19.9629C54.0001 19.9629 53.8121 19.8981 53.6436 19.7685C53.4816 19.6389 53.3779 19.4704 53.3326 19.263L50.0663 6.76187C49.9821 6.42488 50.021 6.15269 50.183 5.94532C50.345 5.73145 50.601 5.62452 50.9509 5.62452H52.9146C53.1284 5.62452 53.3164 5.69257 53.4784 5.82866C53.6404 5.95828 53.7441 6.13001 53.7894 6.34387L56.0641 15.5982L58.0569 6.36331C58.0958 6.14945 58.1995 5.97448 58.368 5.83838C58.5365 5.69581 58.7309 5.62452 58.9513 5.62452H60.8566C61.0834 5.62452 61.281 5.69257 61.4495 5.82866C61.618 5.96476 61.7217 6.14297 61.7606 6.36331L63.7437 15.5982L66.0184 6.34387C66.0637 6.12353 66.1674 5.94856 66.3294 5.81894C66.4979 5.68933 66.6924 5.62452 66.9127 5.62452H68.8666C69.2166 5.62452 69.4725 5.73145 69.6346 5.94532C69.8031 6.15269 69.8387 6.42488 69.7415 6.76187L66.4947 19.263C66.4493 19.4704 66.3424 19.6389 66.1739 19.7685C66.0119 19.8981 65.8272 19.9629 65.6198 19.9629H62.6938C62.4735 19.9629 62.2791 19.8948 62.1106 19.7588C61.9421 19.6162 61.8449 19.438 61.8189 19.2241L59.9039 10.5239L57.9889 19.2241C57.95 19.4444 57.8496 19.6227 57.6875 19.7588C57.5255 19.8948 57.3343 19.9629 57.114 19.9629H54.2074ZM80.3373 20.0212C79.6309 20.1962 78.8954 20.2837 78.1306 20.2837C77.3659 20.2837 76.6271 20.1962 75.9143 20.0212C75.2079 19.8462 74.5274 19.5643 73.8729 19.1755C73.2248 18.7867 72.661 18.3071 72.1814 17.7368C71.7019 17.1665 71.3195 16.4601 71.0344 15.6176C70.7492 14.7687 70.6067 13.829 70.6067 12.7986C70.6067 11.7681 70.7492 10.8317 71.0344 9.98922C71.3195 9.14026 71.7019 8.43063 72.1814 7.86034C72.661 7.29004 73.2248 6.81048 73.8729 6.42164C74.5274 6.0328 75.2079 5.7509 75.9143 5.57592C76.6271 5.40094 77.3659 5.31345 78.1306 5.31345C78.8954 5.31345 79.6309 5.40094 80.3373 5.57592C81.0437 5.7509 81.7209 6.0328 82.369 6.42164C83.0235 6.81048 83.5906 7.29004 84.0701 7.86034C84.5562 8.43063 84.9418 9.14026 85.2269 9.98922C85.5121 10.8317 85.6546 11.7681 85.6546 12.7986C85.6546 13.829 85.5121 14.7687 85.2269 15.6176C84.9418 16.4601 84.5562 17.1665 84.0701 17.7368C83.5906 18.3071 83.0235 18.7867 82.369 19.1755C81.7209 19.5643 81.0437 19.8462 80.3373 20.0212ZM75.331 16.1134C76.0439 16.9559 76.9771 17.3771 78.1306 17.3771C79.2842 17.3771 80.2109 16.9559 80.9108 16.1134C81.6172 15.2644 81.9704 14.1595 81.9704 12.7986C81.9704 11.4376 81.6172 10.3359 80.9108 9.49345C80.2109 8.64449 79.2842 8.22001 78.1306 8.22001C76.9771 8.22001 76.0439 8.64449 75.331 9.49345C74.6246 10.3359 74.2714 11.4376 74.2714 12.7986C74.2714 14.1595 74.6246 15.2644 75.331 16.1134ZM87.6474 19.0491V6.54801C87.6474 6.26935 87.7284 6.04576 87.8905 5.87727C88.059 5.70877 88.2825 5.62452 88.5612 5.62452H95.0742C96.7138 5.62452 98.0067 6.049 98.9529 6.89797C99.899 7.74693 100.372 8.92964 100.372 10.4461C100.372 11.4571 100.158 12.2963 99.7305 12.9638C99.3093 13.6313 98.6872 14.1919 97.8641 14.6455L99.8278 18.6506C100.016 19.0394 100.035 19.357 99.8861 19.6032C99.737 19.843 99.4454 19.9629 99.0112 19.9629H97.1253C96.9504 19.9629 96.7851 19.9175 96.6296 19.8268C96.4805 19.7296 96.3736 19.6032 96.3088 19.4477L94.2965 15.2871H91.3122V19.0491C91.3122 19.3278 91.228 19.5514 91.0595 19.7199C90.8975 19.8819 90.6836 19.9629 90.4179 19.9629H88.5612C88.2825 19.9629 88.059 19.8819 87.8905 19.7199C87.7284 19.5514 87.6474 19.3278 87.6474 19.0491ZM91.3122 8.53108V12.3806H94.6368C95.3172 12.3806 95.8325 12.2153 96.1824 11.8848C96.5324 11.5478 96.7073 11.0747 96.7073 10.4655C96.7073 9.84341 96.5324 9.36708 96.1824 9.03657C95.8389 8.69958 95.3237 8.53108 94.6368 8.53108H91.3122ZM103.279 19.9629C103 19.9629 102.776 19.8819 102.608 19.7199C102.446 19.5514 102.365 19.3278 102.365 19.0491V6.54801C102.365 6.26935 102.446 6.04576 102.608 5.87727C102.776 5.70877 103 5.62452 103.279 5.62452H105.135C105.401 5.62452 105.615 5.70877 105.777 5.87727C105.945 6.04576 106.03 6.26935 106.03 6.54801V11.5251L111.162 5.96476C111.344 5.73794 111.577 5.62452 111.862 5.62452H113.67C114.267 5.62452 114.626 5.76386 114.749 6.04252C114.873 6.31471 114.74 6.67438 114.351 7.12155L110.064 11.739L114.769 18.5534C115.047 18.9811 115.116 19.3245 114.973 19.5838C114.837 19.8365 114.516 19.9629 114.011 19.9629H112.183C111.846 19.9629 111.593 19.83 111.425 19.5643L107.517 13.9748L106.03 15.2482V19.0491C106.03 19.3278 105.945 19.5514 105.777 19.7199C105.615 19.8819 105.401 19.9629 105.135 19.9629H103.279ZM121.923 19.9629C121.651 19.9629 121.431 19.8786 121.262 19.7101C121.094 19.5417 121.01 19.3213 121.01 19.0491V8.53108H117.121C116.849 8.53108 116.629 8.44683 116.46 8.27834C116.292 8.10984 116.208 7.8895 116.208 7.61731V6.54801C116.208 6.26935 116.289 6.04576 116.451 5.87727C116.619 5.70877 116.843 5.62452 117.121 5.62452H128.592C128.858 5.62452 129.075 5.71201 129.243 5.88699C129.418 6.05549 129.506 6.27583 129.506 6.54801V7.61731C129.506 7.88302 129.418 8.10336 129.243 8.27834C129.075 8.44683 128.858 8.53108 128.592 8.53108H124.694V19.0491C124.694 19.3213 124.606 19.5417 124.431 19.7101C124.263 19.8786 124.043 19.9629 123.77 19.9629H121.923ZM131.217 19.0491V6.54801C131.217 6.26935 131.298 6.04576 131.46 5.87727C131.628 5.70877 131.852 5.62452 132.13 5.62452H138.643C140.283 5.62452 141.576 6.049 142.522 6.89797C143.468 7.74693 143.941 8.92964 143.941 10.4461C143.941 11.4571 143.727 12.2963 143.3 12.9638C142.878 13.6313 142.256 14.1919 141.433 14.6455L143.397 18.6506C143.585 19.0394 143.604 19.357 143.455 19.6032C143.306 19.843 143.015 19.9629 142.58 19.9629H140.695C140.52 19.9629 140.354 19.9175 140.199 19.8268C140.05 19.7296 139.943 19.6032 139.878 19.4477L137.866 15.2871H134.881V19.0491C134.881 19.3278 134.797 19.5514 134.629 19.7199C134.467 19.8819 134.253 19.9629 133.987 19.9629H132.13C131.852 19.9629 131.628 19.8819 131.46 19.7199C131.298 19.5514 131.217 19.3278 131.217 19.0491ZM134.881 8.53108V12.3806H138.206C138.886 12.3806 139.402 12.2153 139.752 11.8848C140.102 11.5478 140.277 11.0747 140.277 10.4655C140.277 9.84341 140.102 9.36708 139.752 9.03657C139.408 8.69958 138.893 8.53108 138.206 8.53108H134.881ZM145.798 6.54801C145.798 6.26935 145.879 6.04576 146.041 5.87727C146.21 5.70877 146.433 5.62452 146.712 5.62452H148.568C148.834 5.62452 149.048 5.70877 149.21 5.87727C149.379 6.04576 149.463 6.26935 149.463 6.54801V13.2166C149.463 15.9903 150.37 17.3771 152.185 17.3771C154.006 17.3771 154.916 15.9903 154.916 13.2166V6.54801C154.916 6.27583 155 6.05549 155.169 5.88699C155.344 5.71201 155.564 5.62452 155.83 5.62452H157.658C157.93 5.62452 158.15 5.71201 158.319 5.88699C158.494 6.05549 158.581 6.27583 158.581 6.54801V13.2166C158.581 17.928 156.449 20.2837 152.185 20.2837C150.001 20.2837 148.39 19.6842 147.353 18.4853C146.316 17.2864 145.798 15.5301 145.798 13.2166V6.54801ZM173.405 16.162C173.697 16.2398 173.895 16.3888 173.998 16.6092C174.102 16.823 174.083 17.0596 173.94 17.3188C173.415 18.2066 172.634 18.9228 171.597 19.4671C170.56 20.0115 169.339 20.2837 167.933 20.2837C166.844 20.2837 165.843 20.1184 164.929 19.7879C164.022 19.4574 163.234 18.9811 162.567 18.3589C161.906 17.7368 161.39 16.9526 161.021 16.0065C160.652 15.0538 160.467 13.9845 160.467 12.7986C160.467 11.6126 160.652 10.5466 161.021 9.60038C161.39 8.64773 161.906 7.86034 162.567 7.2382C163.234 6.61606 164.022 6.13973 164.929 5.80922C165.843 5.47871 166.844 5.31345 167.933 5.31345C169.339 5.31345 170.56 5.58564 171.597 6.13001C172.634 6.67438 173.415 7.39049 173.94 8.27834C174.083 8.53756 174.102 8.77734 173.998 8.99769C173.895 9.21155 173.697 9.35736 173.405 9.43513L171.695 9.87257C171.28 9.96978 170.927 9.83045 170.635 9.45457C169.955 8.63153 169.054 8.22001 167.933 8.22001C166.798 8.22001 165.881 8.63153 165.182 9.45457C164.482 10.2776 164.132 11.3923 164.132 12.7986C164.132 14.2049 164.482 15.3195 165.182 16.1426C165.881 16.9656 166.798 17.3771 167.933 17.3771C169.054 17.3771 169.955 16.9656 170.635 16.1426C170.927 15.7667 171.28 15.6274 171.695 15.7246L173.405 16.162ZM176.788 19.9629C176.51 19.9629 176.286 19.8819 176.118 19.7199C175.956 19.5514 175.875 19.3278 175.875 19.0491V6.54801C175.875 6.26935 175.956 6.04576 176.118 5.87727C176.286 5.70877 176.51 5.62452 176.788 5.62452H178.645C178.911 5.62452 179.125 5.70877 179.287 5.87727C179.455 6.04576 179.539 6.26935 179.539 6.54801V11.5251L184.672 5.96476C184.853 5.73794 185.087 5.62452 185.372 5.62452H187.18C187.776 5.62452 188.136 5.76386 188.259 6.04252C188.382 6.31471 188.249 6.67438 187.86 7.12155L183.574 11.739L188.278 18.5534C188.557 18.9811 188.625 19.3245 188.483 19.5838C188.347 19.8365 188.026 19.9629 187.52 19.9629H185.693C185.356 19.9629 185.103 19.83 184.934 19.5643L181.027 13.9748L179.539 15.2482V19.0491C179.539 19.3278 179.455 19.5514 179.287 19.7199C179.125 19.8819 178.911 19.9629 178.645 19.9629H176.788Z" fill="url(#paint0_linear_1_27)"/>
<path d="M54.2074 19.9629C54.0001 19.9629 53.8121 19.8981 53.6436 19.7685C53.4816 19.6389 53.3779 19.4704 53.3326 19.263L50.0663 6.76187C49.9821 6.42488 50.021 6.15269 50.183 5.94532C50.345 5.73145 50.601 5.62452 50.9509 5.62452H52.9146C53.1284 5.62452 53.3164 5.69257 53.4784 5.82866C53.6404 5.95828 53.7441 6.13001 53.7894 6.34387L56.0641 15.5982L58.0569 6.36331C58.0958 6.14945 58.1995 5.97448 58.368 5.83838C58.5365 5.69581 58.7309 5.62452 58.9513 5.62452H60.8566C61.0834 5.62452 61.281 5.69257 61.4495 5.82866C61.618 5.96476 61.7217 6.14297 61.7606 6.36331L63.7437 15.5982L66.0184 6.34387C66.0637 6.12353 66.1674 5.94856 66.3294 5.81894C66.4979 5.68933 66.6924 5.62452 66.9127 5.62452H68.8666C69.2166 5.62452 69.4725 5.73145 69.6346 5.94532C69.8031 6.15269 69.8387 6.42488 69.7415 6.76187L66.4947 19.263C66.4493 19.4704 66.3424 19.6389 66.1739 19.7685C66.0119 19.8981 65.8272 19.9629 65.6198 19.9629H62.6938C62.4735 19.9629 62.2791 19.8948 62.1106 19.7588C61.9421 19.6162 61.8449 19.438 61.8189 19.2241L59.9039 10.5239L57.9889 19.2241C57.95 19.4444 57.8496 19.6227 57.6875 19.7588C57.5255 19.8948 57.3343 19.9629 57.114 19.9629H54.2074ZM80.3373 20.0212C79.6309 20.1962 78.8954 20.2837 78.1306 20.2837C77.3659 20.2837 76.6271 20.1962 75.9143 20.0212C75.2079 19.8462 74.5274 19.5643 73.8729 19.1755C73.2248 18.7867 72.661 18.3071 72.1814 17.7368C71.7019 17.1665 71.3195 16.4601 71.0344 15.6176C70.7492 14.7687 70.6067 13.829 70.6067 12.7986C70.6067 11.7681 70.7492 10.8317 71.0344 9.98922C71.3195 9.14026 71.7019 8.43063 72.1814 7.86034C72.661 7.29004 73.2248 6.81048 73.8729 6.42164C74.5274 6.0328 75.2079 5.7509 75.9143 5.57592C76.6271 5.40094 77.3659 5.31345 78.1306 5.31345C78.8954 5.31345 79.6309 5.40094 80.3373 5.57592C81.0437 5.7509 81.7209 6.0328 82.369 6.42164C83.0235 6.81048 83.5906 7.29004 84.0701 7.86034C84.5562 8.43063 84.9418 9.14026 85.2269 9.98922C85.5121 10.8317 85.6546 11.7681 85.6546 12.7986C85.6546 13.829 85.5121 14.7687 85.2269 15.6176C84.9418 16.4601 84.5562 17.1665 84.0701 17.7368C83.5906 18.3071 83.0235 18.7867 82.369 19.1755C81.7209 19.5643 81.0437 19.8462 80.3373 20.0212ZM75.331 16.1134C76.0439 16.9559 76.9771 17.3771 78.1306 17.3771C79.2842 17.3771 80.2109 16.9559 80.9108 16.1134C81.6172 15.2644 81.9704 14.1595 81.9704 12.7986C81.9704 11.4376 81.6172 10.3359 80.9108 9.49345C80.2109 8.64449 79.2842 8.22001 78.1306 8.22001C76.9771 8.22001 76.0439 8.64449 75.331 9.49345C74.6246 10.3359 74.2714 11.4376 74.2714 12.7986C74.2714 14.1595 74.6246 15.2644 75.331 16.1134ZM87.6474 19.0491V6.54801C87.6474 6.26935 87.7284 6.04576 87.8905 5.87727C88.059 5.70877 88.2825 5.62452 88.5612 5.62452H95.0742C96.7138 5.62452 98.0067 6.049 98.9529 6.89797C99.899 7.74693 100.372 8.92964 100.372 10.4461C100.372 11.4571 100.158 12.2963 99.7305 12.9638C99.3093 13.6313 98.6872 14.1919 97.8641 14.6455L99.8278 18.6506C100.016 19.0394 100.035 19.357 99.8861 19.6032C99.737 19.843 99.4454 19.9629 99.0112 19.9629H97.1253C96.9504 19.9629 96.7851 19.9175 96.6296 19.8268C96.4805 19.7296 96.3736 19.6032 96.3088 19.4477L94.2965 15.2871H91.3122V19.0491C91.3122 19.3278 91.228 19.5514 91.0595 19.7199C90.8975 19.8819 90.6836 19.9629 90.4179 19.9629H88.5612C88.2825 19.9629 88.059 19.8819 87.8905 19.7199C87.7284 19.5514 87.6474 19.3278 87.6474 19.0491ZM91.3122 8.53108V12.3806H94.6368C95.3172 12.3806 95.8325 12.2153 96.1824 11.8848C96.5324 11.5478 96.7073 11.0747 96.7073 10.4655C96.7073 9.84341 96.5324 9.36708 96.1824 9.03657C95.8389 8.69958 95.3237 8.53108 94.6368 8.53108H91.3122ZM103.279 19.9629C103 19.9629 102.776 19.8819 102.608 19.7199C102.446 19.5514 102.365 19.3278 102.365 19.0491V6.54801C102.365 6.26935 102.446 6.04576 102.608 5.87727C102.776 5.70877 103 5.62452 103.279 5.62452H105.135C105.401 5.62452 105.615 5.70877 105.777 5.87727C105.945 6.04576 106.03 6.26935 106.03 6.54801V11.5251L111.162 5.96476C111.344 5.73794 111.577 5.62452 111.862 5.62452H113.67C114.267 5.62452 114.626 5.76386 114.749 6.04252C114.873 6.31471 114.74 6.67438 114.351 7.12155L110.064 11.739L114.769 18.5534C115.047 18.9811 115.116 19.3245 114.973 19.5838C114.837 19.8365 114.516 19.9629 114.011 19.9629H112.183C111.846 19.9629 111.593 19.83 111.425 19.5643L107.517 13.9748L106.03 15.2482V19.0491C106.03 19.3278 105.945 19.5514 105.777 19.7199C105.615 19.8819 105.401 19.9629 105.135 19.9629H103.279ZM121.923 19.9629C121.651 19.9629 121.431 19.8786 121.262 19.7101C121.094 19.5417 121.01 19.3213 121.01 19.0491V8.53108H117.121C116.849 8.53108 116.629 8.44683 116.46 8.27834C116.292 8.10984 116.208 7.8895 116.208 7.61731V6.54801C116.208 6.26935 116.289 6.04576 116.451 5.87727C116.619 5.70877 116.843 5.62452 117.121 5.62452H128.592C128.858 5.62452 129.075 5.71201 129.243 5.88699C129.418 6.05549 129.506 6.27583 129.506 6.54801V7.61731C129.506 7.88302 129.418 8.10336 129.243 8.27834C129.075 8.44683 128.858 8.53108 128.592 8.53108H124.694V19.0491C124.694 19.3213 124.606 19.5417 124.431 19.7101C124.263 19.8786 124.043 19.9629 123.77 19.9629H121.923ZM131.217 19.0491V6.54801C131.217 6.26935 131.298 6.04576 131.46 5.87727C131.628 5.70877 131.852 5.62452 132.13 5.62452H138.643C140.283 5.62452 141.576 6.049 142.522 6.89797C143.468 7.74693 143.941 8.92964 143.941 10.4461C143.941 11.4571 143.727 12.2963 143.3 12.9638C142.878 13.6313 142.256 14.1919 141.433 14.6455L143.397 18.6506C143.585 19.0394 143.604 19.357 143.455 19.6032C143.306 19.843 143.015 19.9629 142.58 19.9629H140.695C140.52 19.9629 140.354 19.9175 140.199 19.8268C140.05 19.7296 139.943 19.6032 139.878 19.4477L137.866 15.2871H134.881V19.0491C134.881 19.3278 134.797 19.5514 134.629 19.7199C134.467 19.8819 134.253 19.9629 133.987 19.9629H132.13C131.852 19.9629 131.628 19.8819 131.46 19.7199C131.298 19.5514 131.217 19.3278 131.217 19.0491ZM134.881 8.53108V12.3806H138.206C138.886 12.3806 139.402 12.2153 139.752 11.8848C140.102 11.5478 140.277 11.0747 140.277 10.4655C140.277 9.84341 140.102 9.36708 139.752 9.03657C139.408 8.69958 138.893 8.53108 138.206 8.53108H134.881ZM145.798 6.54801C145.798 6.26935 145.879 6.04576 146.041 5.87727C146.21 5.70877 146.433 5.62452 146.712 5.62452H148.568C148.834 5.62452 149.048 5.70877 149.21 5.87727C149.379 6.04576 149.463 6.26935 149.463 6.54801V13.2166C149.463 15.9903 150.37 17.3771 152.185 17.3771C154.006 17.3771 154.916 15.9903 154.916 13.2166V6.54801C154.916 6.27583 155 6.05549 155.169 5.88699C155.344 5.71201 155.564 5.62452 155.83 5.62452H157.658C157.93 5.62452 158.15 5.71201 158.319 5.88699C158.494 6.05549 158.581 6.27583 158.581 6.54801V13.2166C158.581 17.928 156.449 20.2837 152.185 20.2837C150.001 20.2837 148.39 19.6842 147.353 18.4853C146.316 17.2864 145.798 15.5301 145.798 13.2166V6.54801ZM173.405 16.162C173.697 16.2398 173.895 16.3888 173.998 16.6092C174.102 16.823 174.083 17.0596 173.94 17.3188C173.415 18.2066 172.634 18.9228 171.597 19.4671C170.56 20.0115 169.339 20.2837 167.933 20.2837C166.844 20.2837 165.843 20.1184 164.929 19.7879C164.022 19.4574 163.234 18.9811 162.567 18.3589C161.906 17.7368 161.39 16.9526 161.021 16.0065C160.652 15.0538 160.467 13.9845 160.467 12.7986C160.467 11.6126 160.652 10.5466 161.021 9.60038C161.39 8.64773 161.906 7.86034 162.567 7.2382C163.234 6.61606 164.022 6.13973 164.929 5.80922C165.843 5.47871 166.844 5.31345 167.933 5.31345C169.339 5.31345 170.56 5.58564 171.597 6.13001C172.634 6.67438 173.415 7.39049 173.94 8.27834C174.083 8.53756 174.102 8.77734 173.998 8.99769C173.895 9.21155 173.697 9.35736 173.405 9.43513L171.695 9.87257C171.28 9.96978 170.927 9.83045 170.635 9.45457C169.955 8.63153 169.054 8.22001 167.933 8.22001C166.798 8.22001 165.881 8.63153 165.182 9.45457C164.482 10.2776 164.132 11.3923 164.132 12.7986C164.132 14.2049 164.482 15.3195 165.182 16.1426C165.881 16.9656 166.798 17.3771 167.933 17.3771C169.054 17.3771 169.955 16.9656 170.635 16.1426C170.927 15.7667 171.28 15.6274 171.695 15.7246L173.405 16.162ZM176.788 19.9629C176.51 19.9629 176.286 19.8819 176.118 19.7199C175.956 19.5514 175.875 19.3278 175.875 19.0491V6.54801C175.875 6.26935 175.956 6.04576 176.118 5.87727C176.286 5.70877 176.51 5.62452 176.788 5.62452H178.645C178.911 5.62452 179.125 5.70877 179.287 5.87727C179.455 6.04576 179.539 6.26935 179.539 6.54801V11.5251L184.672 5.96476C184.853 5.73794 185.087 5.62452 185.372 5.62452H187.18C187.776 5.62452 188.136 5.76386 188.259 6.04252C188.382 6.31471 188.249 6.67438 187.86 7.12155L183.574 11.739L188.278 18.5534C188.557 18.9811 188.625 19.3245 188.483 19.5838C188.347 19.8365 188.026 19.9629 187.52 19.9629H185.693C185.356 19.9629 185.103 19.83 184.934 19.5643L181.027 13.9748L179.539 15.2482V19.0491C179.539 19.3278 179.455 19.5514 179.287 19.7199C179.125 19.8819 178.911 19.9629 178.645 19.9629H176.788Z" fill="#003362"/>
<path d="M20.103 25.3118H15.2908C15.1658 25.3119 15.043 25.2795 14.9342 25.2179C14.8255 25.1563 14.7345 25.0676 14.6703 24.9604L0.061535 0.66064C0.0221712 0.594832 0.000949842 0.519768 3.115e-05 0.443091C-0.000887542 0.366414 0.0185296 0.290862 0.0563054 0.22413C0.0940812 0.157398 0.148867 0.101868 0.215083 0.0631942C0.281299 0.0245208 0.35658 0.00408471 0.433263 0.00396801H5.24692C5.37177 0.00379187 5.49453 0.0359386 5.60327 0.0972776C5.712 0.158617 5.80301 0.247058 5.86743 0.353999L20.4762 24.6537C20.516 24.7197 20.5375 24.795 20.5386 24.872C20.5396 24.949 20.5201 25.0249 20.4821 25.0919C20.4441 25.1589 20.389 25.2146 20.3224 25.2533C20.2557 25.2919 20.18 25.3121 20.103 25.3118Z" fill="url(#paint1_linear_1_27)"/>
<path d="M20.103 25.3118H15.2908C15.1658 25.3119 15.043 25.2795 14.9342 25.2179C14.8255 25.1563 14.7345 25.0676 14.6703 24.9604L0.061535 0.66064C0.0221712 0.594832 0.000949842 0.519768 3.115e-05 0.443091C-0.000887542 0.366414 0.0185296 0.290862 0.0563054 0.22413C0.0940812 0.157398 0.148867 0.101868 0.215083 0.0631942C0.281299 0.0245208 0.35658 0.00408471 0.433263 0.00396801H5.24692C5.37177 0.00379187 5.49453 0.0359386 5.60327 0.0972776C5.712 0.158617 5.80301 0.247058 5.86743 0.353999L20.4762 24.6537C20.516 24.7197 20.5375 24.795 20.5386 24.872C20.5396 24.949 20.5201 25.0249 20.4821 25.0919C20.4441 25.1589 20.389 25.2146 20.3224 25.2533C20.2557 25.2919 20.18 25.3121 20.103 25.3118Z" fill="#AED8FF"/>
<path d="M42.1319 0.658149L33.2263 15.4665L30.6098 19.8303C30.5712 19.8944 30.5167 19.9475 30.4515 19.9843C30.3864 20.0211 30.3129 20.0404 30.2381 20.0404C30.1632 20.0404 30.0897 20.0211 30.0246 19.9843C29.9594 19.9475 29.9049 19.8944 29.8663 19.8303L27.5521 15.9872C27.4575 15.8297 27.4075 15.6495 27.4075 15.4658C27.4075 15.2821 27.4575 15.1018 27.5521 14.9444L30.2323 10.4822L36.3202 0.357295C36.3846 0.250354 36.4756 0.16191 36.5844 0.100571C36.6931 0.0392323 36.8159 0.00708777 36.9407 0.0072639H41.7602C41.836 0.00797165 41.9103 0.0285358 41.9757 0.0669094C42.0411 0.105283 42.0953 0.160125 42.1329 0.225971C42.1705 0.291818 42.1902 0.36637 42.19 0.442198C42.1899 0.518026 42.1698 0.592482 42.1319 0.658149Z" fill="url(#paint2_linear_1_27)"/>
<path d="M42.1319 0.658149L33.2263 15.4665L30.6098 19.8303C30.5712 19.8944 30.5167 19.9475 30.4515 19.9843C30.3864 20.0211 30.3129 20.0404 30.2381 20.0404C30.1632 20.0404 30.0897 20.0211 30.0246 19.9843C29.9594 19.9475 29.9049 19.8944 29.8663 19.8303L27.5521 15.9872C27.4575 15.8297 27.4075 15.6495 27.4075 15.4658C27.4075 15.2821 27.4575 15.1018 27.5521 14.9444L30.2323 10.4822L36.3202 0.357295C36.3846 0.250354 36.4756 0.16191 36.5844 0.100571C36.6931 0.0392323 36.8159 0.00708777 36.9407 0.0072639H41.7602C41.836 0.00797165 41.9103 0.0285358 41.9757 0.0669094C42.0411 0.105283 42.0953 0.160125 42.1329 0.225971C42.1705 0.291818 42.1902 0.36637 42.19 0.442198C42.1899 0.518026 42.1698 0.592482 42.1319 0.658149Z" fill="#003362"/>
<path d="M38.2989 25.2674H33.4853C33.389 25.2672 33.2937 25.2478 33.205 25.2103C33.1164 25.1728 33.0361 25.1179 32.9689 25.049L31.4661 22.5467C31.3715 22.3892 31.3215 22.209 31.3215 22.0253C31.3215 21.8416 31.3715 21.6613 31.4661 21.5038L33.763 17.6795C33.8016 17.6154 33.8561 17.5624 33.9212 17.5256C33.9863 17.4888 34.0599 17.4695 34.1347 17.4695C34.2095 17.4695 34.2831 17.4888 34.3482 17.5256C34.4133 17.5624 34.4678 17.6154 34.5064 17.6795L37.1317 22.0448L38.6735 24.6093C38.7134 24.6753 38.7349 24.7508 38.7359 24.828C38.7369 24.9051 38.7173 24.9811 38.6791 25.0482C38.641 25.1152 38.5856 25.1709 38.5188 25.2094C38.452 25.2479 38.3761 25.268 38.2989 25.2674Z" fill="url(#paint3_linear_1_27)"/>
<path d="M38.2989 25.2674H33.4853C33.389 25.2672 33.2937 25.2478 33.205 25.2103C33.1164 25.1728 33.0361 25.1179 32.9689 25.049L31.4661 22.5467C31.3715 22.3892 31.3215 22.209 31.3215 22.0253C31.3215 21.8416 31.3715 21.6613 31.4661 21.5038L33.763 17.6795C33.8016 17.6154 33.8561 17.5624 33.9212 17.5256C33.9863 17.4888 34.0599 17.4695 34.1347 17.4695C34.2095 17.4695 34.2831 17.4888 34.3482 17.5256C34.4133 17.5624 34.4678 17.6154 34.5064 17.6795L37.1317 22.0448L38.6735 24.6093C38.7134 24.6753 38.7349 24.7508 38.7359 24.828C38.7369 24.9051 38.7173 24.9811 38.6791 25.0482C38.641 25.1152 38.5856 25.1709 38.5188 25.2094C38.452 25.2479 38.3761 25.268 38.2989 25.2674Z" fill="#003362"/>
<path d="M29.4787 25.3121H24.665C24.54 25.3122 24.4172 25.2798 24.3084 25.2182C24.1997 25.1566 24.1087 25.0679 24.0445 24.9607L18.8606 16.3343L17.8481 14.6579L17.8177 14.6101L16.8327 12.9714C16.7933 12.9056 16.7721 12.8305 16.7712 12.7538C16.7703 12.6771 16.7897 12.6016 16.8275 12.5349C16.8652 12.4681 16.92 12.4126 16.9862 12.3739C17.0525 12.3352 17.1277 12.3148 17.2044 12.3147H20.2969C21.3722 12.314 22.404 11.8896 23.1686 11.1334C23.9332 10.3772 24.369 9.35016 24.3815 8.27486C24.4061 6.00399 22.4824 4.14391 20.2101 4.14391H11.9467C11.8219 4.14409 11.6991 4.11194 11.5904 4.0506C11.4816 3.98926 11.3906 3.90082 11.3262 3.79388L9.44587 0.656611C9.40651 0.590803 9.38529 0.515737 9.38437 0.43906C9.38345 0.362383 9.40287 0.286833 9.44064 0.220101C9.47842 0.153369 9.5332 0.0978385 9.59942 0.0591651C9.66564 0.0204917 9.74092 5.56718e-05 9.8176 -6.10352e-05H20.1884C24.7041 -6.10352e-05 28.4691 3.58559 28.5385 8.09984C28.5621 9.51695 28.2187 10.9161 27.5417 12.1612C26.8648 13.4064 25.8773 14.4553 24.6751 15.2061C24.5786 15.2659 24.5093 15.3613 24.4823 15.4716C24.4553 15.5819 24.4726 15.6985 24.5305 15.7962L29.8533 24.654C29.8932 24.7201 29.9147 24.7956 29.9157 24.8727C29.9167 24.9498 29.8971 25.0258 29.8589 25.0929C29.8207 25.1599 29.7654 25.2156 29.6985 25.2541C29.6317 25.2927 29.5558 25.3127 29.4787 25.3121Z" fill="url(#paint4_linear_1_27)"/>
<path d="M29.4787 25.3121H24.665C24.54 25.3122 24.4172 25.2798 24.3084 25.2182C24.1997 25.1566 24.1087 25.0679 24.0445 24.9607L18.8606 16.3343L17.8481 14.6579L17.8177 14.6101L16.8327 12.9714C16.7933 12.9056 16.7721 12.8305 16.7712 12.7538C16.7703 12.6771 16.7897 12.6016 16.8275 12.5349C16.8652 12.4681 16.92 12.4126 16.9862 12.3739C17.0525 12.3352 17.1277 12.3148 17.2044 12.3147H20.2969C21.3722 12.314 22.404 11.8896 23.1686 11.1334C23.9332 10.3772 24.369 9.35016 24.3815 8.27486C24.4061 6.00399 22.4824 4.14391 20.2101 4.14391H11.9467C11.8219 4.14409 11.6991 4.11194 11.5904 4.0506C11.4816 3.98926 11.3906 3.90082 11.3262 3.79388L9.44587 0.656611C9.40651 0.590803 9.38529 0.515737 9.38437 0.43906C9.38345 0.362383 9.40287 0.286833 9.44064 0.220101C9.47842 0.153369 9.5332 0.0978385 9.59942 0.0591651C9.66564 0.0204917 9.74092 5.56718e-05 9.8176 -6.10352e-05H20.1884C24.7041 -6.10352e-05 28.4691 3.58559 28.5385 8.09984C28.5621 9.51695 28.2187 10.9161 27.5417 12.1612C26.8648 13.4064 25.8773 14.4553 24.6751 15.2061C24.5786 15.2659 24.5093 15.3613 24.4823 15.4716C24.4553 15.5819 24.4726 15.6985 24.5305 15.7962L29.8533 24.654C29.8932 24.7201 29.9147 24.7956 29.9157 24.8727C29.9167 24.9498 29.8971 25.0258 29.8589 25.0929C29.8207 25.1599 29.7654 25.2156 29.6985 25.2541C29.6317 25.2927 29.5558 25.3127 29.4787 25.3121Z" fill="#AED8FF"/>
<defs>
<linearGradient id="paint0_linear_1_27" x1="58.9067" y1="10.2591" x2="178.868" y2="14.5646" gradientUnits="userSpaceOnUse">
<stop stop-color="#228BEB"/>
<stop offset="1" stop-color="#003362"/>
</linearGradient>
<linearGradient id="paint1_linear_1_27" x1="6.50874" y1="10.9789" x2="33.0611" y2="15.1377" gradientUnits="userSpaceOnUse">
<stop stop-color="#228BEB"/>
<stop offset="1" stop-color="#003362"/>
</linearGradient>
<linearGradient id="paint2_linear_1_27" x1="4.63244" y1="10.0238" x2="33.7366" y2="13.3634" gradientUnits="userSpaceOnUse">
<stop stop-color="#228BEB"/>
<stop offset="1" stop-color="#003362"/>
</linearGradient>
<linearGradient id="paint3_linear_1_27" x1="5.56179" y1="10.0525" x2="33.0714" y2="16.8404" gradientUnits="userSpaceOnUse">
<stop stop-color="#228BEB"/>
<stop offset="1" stop-color="#003362"/>
</linearGradient>
<linearGradient id="paint4_linear_1_27" x1="5.22914" y1="10.9792" x2="33.2211" y2="15.298" gradientUnits="userSpaceOnUse">
<stop stop-color="#228BEB"/>
<stop offset="1" stop-color="#003362"/>
</linearGradient>
</defs>
</svg>
